<?xml version="1.0" encoding="UTF-8" standalone="no"?>
<!DOCTYPE svg PUBLIC "-//W3C//DTD SVG 1.1//EN"
 "http://www.w3.org/Graphics/SVG/1.1/DTD/svg11.dtd">
<!-- Generated by graphviz version 2.47.3 (20210619.1520)
 -->
<!-- Title: dependencies Pages: 1 -->
<svg width="192pt" height="174pt"
 viewBox="0.00 0.00 192.00 173.80" xmlns="http://www.w3.org/2000/svg" xmlns:xlink="http://www.w3.org/1999/xlink">
<g id="graph0" class="graph" transform="scale(1 1) rotate(0) translate(4 169.8)">
<title>dependencies</title>
<polygon fill="white" stroke="transparent" points="-4,4 -4,-169.8 188,-169.8 188,4 -4,4"/>
<text text-anchor="middle" x="92" y="-8.2" font-family="sans-serif" font-size="14.00">dependencies</text>
<g id="clust1" class="cluster">
<title>cluster_PlayersModule</title>
<polygon fill="none" stroke="black" stroke-dasharray="1,5" points="8,-32.8 8,-157.8 176,-157.8 176,-32.8 8,-32.8"/>
</g>
<g id="clust6" class="cluster">
<title>cluster_PlayersModule_providers</title>
<polygon fill="none" stroke="black" points="16,-40.8 16,-92.8 168,-92.8 168,-40.8 16,-40.8"/>
</g>
<!-- PlayersService -->
<g id="node1" class="node">
<title>PlayersService</title>
<ellipse fill="#fdb462" stroke="black" cx="92" cy="-66.8" rx="68.33" ry="18"/>
<text text-anchor="middle" x="92" y="-62.6" font-family="Times,serif" font-size="14.00">PlayersService</text>
</g>
<!-- PlayersModule -->
<g id="node2" class="node">
<title>PlayersModule</title>
<polygon fill="#8dd3c7" stroke="black" points="142.26,-149.8 139.26,-153.8 118.26,-153.8 115.26,-149.8 41.74,-149.8 41.74,-113.8 142.26,-113.8 142.26,-149.8"/>
<text text-anchor="middle" x="92" y="-127.6" font-family="Times,serif" font-size="14.00">PlayersModule</text>
</g>
<!-- PlayersService&#45;&gt;PlayersModule -->
<g id="edge1" class="edge">
<title>PlayersService&#45;&gt;PlayersModule</title>
<path fill="none" stroke="black" d="M92,-84.91C92,-84.91 92,-103.79 92,-103.79"/>
<polygon fill="black" stroke="black" points="88.5,-103.79 92,-113.79 95.5,-103.79 88.5,-103.79"/>
</g>
</g>
</svg>
