<?xml version="1.0" encoding="UTF-8" standalone="no"?>
<!DOCTYPE svg PUBLIC "-//W3C//DTD SVG 1.1//EN"
 "http://www.w3.org/Graphics/SVG/1.1/DTD/svg11.dtd">
<!-- Generated by graphviz version 2.47.3 (20210619.1520)
 -->
<!-- Title: dependencies Pages: 1 -->
<svg width="483pt" height="250pt"
 viewBox="0.00 0.00 483.00 249.80" xmlns="http://www.w3.org/2000/svg" xmlns:xlink="http://www.w3.org/1999/xlink">
<g id="graph0" class="graph" transform="scale(1 1) rotate(0) translate(4 245.8)">
<title>dependencies</title>
<polygon fill="white" stroke="transparent" points="-4,4 -4,-245.8 479,-245.8 479,4 -4,4"/>
<text text-anchor="middle" x="237.5" y="-8.2" font-family="sans-serif" font-size="14.00">dependencies</text>
<g id="clust1" class="cluster">
<title>cluster_AppModule</title>
<polygon fill="none" stroke="black" stroke-dasharray="1,5" points="8,-108.8 8,-233.8 419,-233.8 419,-108.8 8,-108.8"/>
</g>
<g id="clust3" class="cluster">
<title>cluster_AppModule_imports</title>
<polygon fill="none" stroke="black" points="154,-116.8 154,-168.8 411,-168.8 411,-116.8 154,-116.8"/>
</g>
<g id="clust6" class="cluster">
<title>cluster_AppModule_providers</title>
<polygon fill="none" stroke="black" points="16,-116.8 16,-168.8 146,-168.8 146,-116.8 16,-116.8"/>
</g>
<g id="clust7" class="cluster">
<title>cluster_CompaniesModule</title>
<polygon fill="none" stroke="black" stroke-dasharray="1,5" points="93,-32.8 93,-100.8 291,-100.8 291,-32.8 93,-32.8"/>
</g>
<g id="clust12" class="cluster">
<title>cluster_CompaniesModule_providers</title>
<polygon fill="none" stroke="black" points="101,-40.8 101,-92.8 283,-92.8 283,-40.8 101,-40.8"/>
</g>
<g id="clust13" class="cluster">
<title>cluster_PlayersModule</title>
<polygon fill="none" stroke="black" stroke-dasharray="1,5" points="299,-32.8 299,-100.8 467,-100.8 467,-32.8 299,-32.8"/>
</g>
<g id="clust18" class="cluster">
<title>cluster_PlayersModule_providers</title>
<polygon fill="none" stroke="black" points="307,-40.8 307,-92.8 459,-92.8 459,-40.8 307,-40.8"/>
</g>
<!-- CompaniesModule -->
<g id="node1" class="node">
<title>CompaniesModule</title>
<polygon fill="#8dd3c7" stroke="black" points="284.04,-160.8 281.04,-164.8 260.04,-164.8 257.04,-160.8 161.96,-160.8 161.96,-124.8 284.04,-124.8 284.04,-160.8"/>
<text text-anchor="middle" x="223" y="-138.6" font-family="Times,serif" font-size="14.00">CompaniesModule</text>
</g>
<!-- AppModule -->
<g id="node3" class="node">
<title>AppModule</title>
<polygon fill="#8dd3c7" stroke="black" points="264.66,-225.8 261.66,-229.8 240.66,-229.8 237.66,-225.8 181.34,-225.8 181.34,-189.8 264.66,-189.8 264.66,-225.8"/>
<text text-anchor="middle" x="223" y="-203.6" font-family="Times,serif" font-size="14.00">AppModule</text>
</g>
<!-- CompaniesModule&#45;&gt;AppModule -->
<g id="edge1" class="edge">
<title>CompaniesModule&#45;&gt;AppModule</title>
<path fill="none" stroke="black" d="M223,-160.91C223,-160.91 223,-179.79 223,-179.79"/>
<polygon fill="black" stroke="black" points="219.5,-179.79 223,-189.79 226.5,-179.79 219.5,-179.79"/>
</g>
<!-- PlayersModule -->
<g id="node2" class="node">
<title>PlayersModule</title>
<polygon fill="#8dd3c7" stroke="black" points="403.26,-160.8 400.26,-164.8 379.26,-164.8 376.26,-160.8 302.74,-160.8 302.74,-124.8 403.26,-124.8 403.26,-160.8"/>
<text text-anchor="middle" x="353" y="-138.6" font-family="Times,serif" font-size="14.00">PlayersModule</text>
</g>
<!-- PlayersModule&#45;&gt;AppModule -->
<g id="edge2" class="edge">
<title>PlayersModule&#45;&gt;AppModule</title>
<path fill="none" stroke="black" d="M353,-160.91C353,-180.14 353,-207.8 353,-207.8 353,-207.8 274.85,-207.8 274.85,-207.8"/>
<polygon fill="black" stroke="black" points="274.85,-204.3 264.85,-207.8 274.85,-211.3 274.85,-204.3"/>
</g>
<!-- AppService -->
<g id="node4" class="node">
<title>AppService</title>
<ellipse fill="#fdb462" stroke="black" cx="81" cy="-142.8" rx="56.74" ry="18"/>
<text text-anchor="middle" x="81" y="-138.6" font-family="Times,serif" font-size="14.00">AppService</text>
</g>
<!-- AppService&#45;&gt;AppModule -->
<g id="edge3" class="edge">
<title>AppService&#45;&gt;AppModule</title>
<path fill="none" stroke="black" d="M81,-160.91C81,-180.14 81,-207.8 81,-207.8 81,-207.8 171.16,-207.8 171.16,-207.8"/>
<polygon fill="black" stroke="black" points="171.16,-211.3 181.16,-207.8 171.16,-204.3 171.16,-211.3"/>
</g>
<!-- CompaniesService -->
<g id="node5" class="node">
<title>CompaniesService</title>
<ellipse fill="#fdb462" stroke="black" cx="192" cy="-66.8" rx="83.38" ry="18"/>
<text text-anchor="middle" x="192" y="-62.6" font-family="Times,serif" font-size="14.00">CompaniesService</text>
</g>
<!-- CompaniesService&#45;&gt;CompaniesModule -->
<g id="edge4" class="edge">
<title>CompaniesService&#45;&gt;CompaniesModule</title>
<path fill="none" stroke="black" d="M218.59,-84.05C218.59,-84.05 218.59,-114.56 218.59,-114.56"/>
<polygon fill="black" stroke="black" points="215.09,-114.56 218.59,-124.56 222.09,-114.56 215.09,-114.56"/>
</g>
<!-- PlayersService -->
<g id="node6" class="node">
<title>PlayersService</title>
<ellipse fill="#fdb462" stroke="black" cx="383" cy="-66.8" rx="68.33" ry="18"/>
<text text-anchor="middle" x="383" y="-62.6" font-family="Times,serif" font-size="14.00">PlayersService</text>
</g>
<!-- PlayersService&#45;&gt;PlayersModule -->
<g id="edge5" class="edge">
<title>PlayersService&#45;&gt;PlayersModule</title>
<path fill="none" stroke="black" d="M358.98,-83.67C358.98,-83.67 358.98,-114.65 358.98,-114.65"/>
<polygon fill="black" stroke="black" points="355.48,-114.65 358.98,-124.65 362.48,-114.65 355.48,-114.65"/>
</g>
</g>
</svg>
